<svg width="214" height="215" viewBox="0 0 214 215" fill="none" xmlns="http://www.w3.org/2000/svg">
<g clip-path="url(#clip0_11_11)">
<path d="M17.8299 204.265H105.28C116.171 211.031 128.945 215.021 142.68 215.021C182.004 215.021 214.02 182.876 214.02 143.348C214.02 131.172 210.909 119.264 205.075 108.693L212.014 101.721C213.816 99.9116 214.471 97.238 213.693 94.77C213.099 92.9602 211.83 91.5 210.172 90.6979L210.848 90.0192C212.895 87.9831 214.02 85.2684 214.02 82.4097C214.02 79.5509 212.895 76.8568 210.868 74.8413C208.841 72.7846 206.18 71.6535 203.314 71.6535C200.448 71.6535 197.787 72.7846 195.781 74.8207L195.085 75.52C194.287 73.8541 192.833 72.5584 191.032 71.9826C188.616 71.201 185.935 71.8386 184.113 73.669L177.173 80.6204C168.739 75.9107 159.446 73.0109 149.825 72.0237V35.8065C149.825 25.9141 141.821 17.8932 131.995 17.8932H106.038C104.789 15.7749 102.517 14.3147 99.8967 14.3147H95.127C92.1383 5.86194 84.0934 -0.0200195 74.943 -0.0200195C65.7926 -0.0200195 57.7272 5.86194 54.7589 14.3147H49.9893C47.3486 14.3147 45.0763 15.7749 43.8481 17.8932H17.8913C8.00402 17.9138 0 25.9552 0 35.827V186.331C0 196.224 8.00402 204.244 17.8299 204.244M142.68 207.843C107.287 207.843 78.4844 178.907 78.4844 143.348C78.4844 107.788 107.287 78.8517 142.68 78.8517C152.998 78.8517 163.09 81.3196 172.158 86.0705C171.564 87.0988 171.216 88.2916 171.216 89.505V99.5208L166.999 103.757C159.732 99.1918 151.38 96.7855 142.68 96.7855C117.112 96.7855 96.3143 117.681 96.3143 143.368C96.3143 169.055 117.112 189.951 142.68 189.951C168.248 189.951 189.046 169.055 189.046 143.368C189.046 134.627 186.651 126.236 182.107 118.935L186.324 114.699H196.293C197.501 114.699 198.667 114.349 199.712 113.753C204.42 122.864 206.897 133.023 206.897 143.368C206.897 178.927 178.095 207.864 142.701 207.864L142.68 207.843ZM181.902 143.348C181.902 165.086 164.297 182.773 142.66 182.773C121.022 182.773 103.418 165.086 103.418 143.348C103.418 121.609 121.022 103.922 142.66 103.922C149.456 103.922 155.966 105.67 161.779 108.961L148.146 122.658C146.365 122.185 144.543 121.856 142.66 121.856C130.869 121.856 121.268 131.501 121.268 143.348C121.268 155.194 130.869 164.839 142.66 164.839C154.451 164.839 164.052 155.194 164.052 143.348C164.052 141.435 163.724 139.625 163.253 137.836L176.887 124.139C180.162 129.979 181.902 136.52 181.902 143.348ZM138.689 147.337C140.715 149.374 143.417 150.505 146.242 150.505C149.067 150.505 151.769 149.394 153.796 147.337L156.846 144.273C156.355 151.739 150.234 157.662 142.68 157.662C135.127 157.662 128.412 151.245 128.412 143.327C128.412 135.409 134.328 129.589 141.739 129.095L138.709 132.139C136.662 134.175 135.536 136.869 135.536 139.748C135.536 142.628 136.662 145.322 138.709 147.337H138.689ZM148.74 142.278C147.368 143.656 145.096 143.656 143.704 142.278C143.028 141.599 142.639 140.715 142.639 139.769C142.639 138.823 143.008 137.939 143.704 137.239L171.38 109.434C171.974 111.902 173.939 113.876 176.395 114.473L148.719 142.278H148.74ZM203.294 78.8723C204.215 78.8723 205.116 79.2219 205.832 79.9417C207.204 81.3196 207.183 83.6025 205.812 84.9599L201.656 89.1143L197.501 88.5179L196.743 83.9727C196.743 83.9727 200.796 79.9006 200.817 79.9006C201.513 79.2013 202.414 78.8517 203.294 78.8723ZM188.698 78.9751L190.459 89.6901C190.95 92.5694 193.202 94.8317 196.068 95.3253L206.528 97.0734L196.272 107.501H178.32L178.238 89.6901L188.678 78.9751H188.698ZM142.68 35.827V71.6535C140.265 71.6535 137.89 71.7769 135.557 72.0237V39.4056C135.557 35.4568 132.343 32.2485 128.433 32.2485H107.041V25.0914H132.015C137.931 25.0914 142.721 29.9039 142.721 35.8476L142.68 35.827ZM49.9279 21.4923H57.4201C59.1192 21.4923 60.5726 20.2789 60.9206 18.613C62.2512 11.9701 68.1263 7.15762 74.902 7.15762C81.6778 7.15762 87.5529 11.9701 88.8835 18.613C89.2315 20.2789 90.6849 21.4923 92.384 21.4923H99.8762V35.827H49.9483V21.4923H49.9279ZM99.8762 43.0047C102.517 43.0047 104.789 41.5445 106.017 39.4261H128.412V73.1137C111.074 76.6717 96.0482 86.6258 85.7515 100.343H71.3402C69.375 100.343 67.7783 101.948 67.7783 103.922C67.7783 105.896 69.375 107.501 71.3402 107.501H81.0023C79.6717 109.825 78.423 112.19 77.3381 114.658H71.3402C69.375 114.658 67.7783 116.262 67.7783 118.236C67.7783 120.211 69.375 121.815 71.3402 121.815H74.6359C72.855 127.512 71.8315 133.537 71.5244 139.728H71.3402C69.375 139.728 67.7783 141.332 67.7783 143.306C67.7783 145.281 69.375 146.885 71.3402 146.885H71.5244C71.6472 149.312 71.8929 151.698 72.2409 154.042H71.3402C69.375 154.042 67.7783 155.646 67.7783 157.621C67.7783 159.595 69.375 161.199 71.3402 161.199H73.6738C75.6799 168.932 78.8734 176.192 83.1722 182.691H21.3918V39.4261H43.7867C45.0354 41.5445 47.3076 43.0047 49.9279 43.0047H99.8558H99.8762ZM7.12378 35.827C7.12378 29.8834 11.9139 25.0709 17.8299 25.0709H42.8041V32.2279H21.4123C17.4819 32.2279 14.2885 35.4568 14.2885 39.385V182.732C14.2885 186.681 17.5024 189.889 21.4123 189.889H88.5764C90.7668 192.46 93.1414 194.825 95.6593 197.046H17.8299C11.9139 197.046 7.12378 192.234 7.12378 186.29V35.827Z" fill="white"/>
<path d="M71.3401 68.0951H117.706C119.671 68.0951 121.268 66.4909 121.268 64.5165C121.268 62.5422 119.671 60.938 117.706 60.938H71.3401C69.375 60.938 67.7783 62.5422 67.7783 64.5165C67.7783 66.4909 69.375 68.0951 71.3401 68.0951Z" fill="white"/>
<path d="M71.3401 82.4295H92.732C94.6971 82.4295 96.2939 80.8254 96.2939 78.851C96.2939 76.8766 94.6971 75.2725 92.732 75.2725H71.3401C69.375 75.2725 67.7783 76.8766 67.7783 78.851C67.7783 80.8254 69.375 82.4295 71.3401 82.4295Z" fill="white"/>
<path d="M33.142 76.3012C31.75 77.6997 31.75 79.962 33.142 81.3605L40.2657 88.5175C40.9413 89.1962 41.8625 89.5664 42.7836 89.5664C42.9883 89.5664 43.1521 89.5664 43.3568 89.5253C44.4827 89.3196 45.4653 88.6204 45.977 87.592L60.2451 58.9226C61.1253 57.1539 60.4088 54.9945 58.6484 54.1101C56.8879 53.2258 54.7385 53.9456 53.8582 55.7143L41.801 79.9414L38.1573 76.2806C36.7653 74.8821 34.5135 74.8821 33.1215 76.2806" fill="white"/>
<path d="M58.6688 93.5559C56.9084 92.6716 54.759 93.3914 53.8787 95.1601L41.8215 119.387L38.1777 115.726C36.7857 114.328 34.534 114.328 33.142 115.726C31.75 117.125 31.75 119.387 33.142 120.786L40.2657 127.943C40.9413 128.621 41.8625 128.992 42.7836 128.992C42.9883 128.992 43.1521 128.992 43.3568 128.951C44.4827 128.745 45.4653 128.046 45.977 127.017L60.2451 98.3479C61.1253 96.5792 60.4088 94.4197 58.6484 93.5354" fill="white"/>
<path d="M58.6688 132.961C56.9084 132.077 54.759 132.797 53.8787 134.565L41.8215 158.792L38.1777 155.132C36.7857 153.733 34.534 153.733 33.142 155.132C31.75 156.53 31.75 158.792 33.142 160.191L40.2657 167.348C40.9413 168.027 41.8625 168.397 42.7836 168.397C42.9883 168.397 43.1521 168.397 43.3568 168.356C44.4827 168.15 45.4653 167.451 45.977 166.423L60.2451 137.753C61.1253 135.984 60.4088 133.825 58.6484 132.941" fill="white"/>
</g>
<defs>
<clipPath id="clip0_11_11">
<rect width="214" height="215" fill="white"/>
</clipPath>
</defs>
</svg>
