<svg width="216" height="217" viewBox="0 0 216 217" fill="none" xmlns="http://www.w3.org/2000/svg">
<g clip-path="url(#clip0_11_91)">
<mask id="mask0_11_91" style="mask-type:luminance" maskUnits="userSpaceOnUse" x="0" y="0" width="216" height="217">
<path d="M216 0H0V217H216V0Z" fill="white"/>
</mask>
<g mask="url(#mask0_11_91)">
<path d="M107.712 18.5998C87.3051 18.5998 70.6834 35.2778 70.6834 55.7998C70.6834 76.3218 87.2846 92.9998 107.712 92.9998C128.139 92.9998 144.741 76.3218 144.741 55.7998C144.741 35.2778 128.139 18.5998 107.712 18.5998ZM107.712 99.7578C83.5817 99.7578 63.9566 80.0418 63.9566 55.7998C63.9566 31.5578 83.5817 11.8418 107.712 11.8418C131.842 11.8418 151.467 31.5578 151.467 55.7998C151.467 80.0418 131.842 99.7578 107.712 99.7578Z" fill="white"/>
<path d="M142.704 79.4633C141.531 79.4633 140.421 78.864 139.783 77.7686C133.179 66.2986 120.898 59.1686 107.712 59.1686C94.5257 59.1686 82.2446 66.2986 75.6411 77.7686C74.7154 79.3806 72.6583 79.9386 71.0331 79.0086C69.4286 78.0786 68.8731 76.012 69.7989 74.3793C77.5954 60.822 92.1189 52.4106 107.691 52.4106C123.264 52.4106 137.787 60.822 145.584 74.3793C146.51 75.9913 145.954 78.058 144.35 79.0086C143.815 79.3186 143.239 79.4633 142.663 79.4633H142.704Z" fill="white"/>
<path d="M33.6549 143.716C18.8023 143.716 6.72686 155.847 6.72686 170.769C6.72686 185.69 18.8023 197.821 33.6549 197.821C48.5074 197.821 60.5829 185.69 60.5829 170.769C60.5829 155.847 48.5074 143.716 33.6549 143.716ZM33.6549 204.579C15.0994 204.579 0 189.41 0 170.769C0 152.127 15.0994 136.958 33.6549 136.958C52.2103 136.958 67.3097 152.127 67.3097 170.769C67.3097 189.41 52.2103 204.579 33.6549 204.579Z" fill="white"/>
<path d="M58.8549 191.063C57.7646 191.063 56.6949 190.547 56.0571 189.555C51.0377 182.032 42.6651 177.527 33.6549 177.527C24.6446 177.527 16.272 182.032 11.2526 189.555C10.224 191.105 8.12571 191.518 6.58285 190.485C5.04 189.451 4.62857 187.343 5.65714 185.793C11.9314 176.39 22.3817 170.769 33.6343 170.769C44.8869 170.769 55.3577 176.39 61.6114 185.793C62.64 187.343 62.2286 189.451 60.6857 190.485C60.1097 190.877 59.4514 191.063 58.8137 191.063H58.8549Z" fill="white"/>
<path d="M33.6549 143.716C31.8034 143.716 30.2811 142.207 30.2811 140.327V120.032C30.2811 118.172 31.7829 116.643 33.6549 116.643H181.749C183.6 116.643 185.122 118.151 185.122 120.032V136.937C185.122 138.797 183.621 140.327 181.749 140.327C179.877 140.327 178.375 138.818 178.375 136.937V123.421H37.0286V140.327C37.0286 142.187 35.5269 143.716 33.6549 143.716Z" fill="white"/>
<path d="M107.712 143.716C105.861 143.716 104.338 142.207 104.338 140.326V96.3683C104.338 94.5083 105.84 92.979 107.712 92.979C109.584 92.979 111.086 94.4877 111.086 96.3683V140.326C111.086 142.186 109.584 143.716 107.712 143.716Z" fill="white"/>
<path d="M33.6549 157.232C29.952 157.232 26.928 160.27 26.928 163.99C26.928 167.71 29.952 170.748 33.6549 170.748C37.3577 170.748 40.3817 167.71 40.3817 163.99C40.3817 160.27 37.3577 157.232 33.6549 157.232ZM33.6549 177.527C26.2286 177.527 20.2011 171.451 20.2011 164.011C20.2011 156.571 26.2491 150.495 33.6549 150.495C41.0606 150.495 47.1086 156.571 47.1086 164.011C47.1086 171.451 41.0606 177.527 33.6549 177.527Z" fill="white"/>
<path d="M107.712 143.716C92.8594 143.716 80.784 155.847 80.784 170.769C80.784 185.69 92.8594 197.821 107.712 197.821C122.565 197.821 134.64 185.69 134.64 170.769C134.64 155.847 122.565 143.716 107.712 143.716ZM107.712 204.579C89.1566 204.579 74.0571 189.41 74.0571 170.769C74.0571 152.127 89.1566 136.958 107.712 136.958C126.267 136.958 141.367 152.127 141.367 170.769C141.367 189.41 126.267 204.579 107.712 204.579Z" fill="white"/>
<path d="M132.912 191.063C131.822 191.063 130.752 190.547 130.114 189.555C125.095 182.032 116.722 177.527 107.712 177.527C98.7017 177.527 90.3291 182.032 85.3097 189.555C84.2811 191.105 82.1829 191.518 80.64 190.485C79.0971 189.451 78.6857 187.343 79.7143 185.793C85.9886 176.39 96.4388 170.769 107.691 170.769C118.944 170.769 129.415 176.39 135.669 185.793C136.697 187.343 136.286 189.451 134.743 190.485C134.167 190.877 133.509 191.063 132.871 191.063H132.912Z" fill="white"/>
<path d="M107.712 157.232C104.009 157.232 100.985 160.27 100.985 163.99C100.985 167.71 104.009 170.748 107.712 170.748C111.415 170.748 114.439 167.71 114.439 163.99C114.439 160.27 111.415 157.232 107.712 157.232ZM107.712 177.527C100.286 177.527 94.2583 171.451 94.2583 164.011C94.2583 156.571 100.306 150.495 107.712 150.495C115.118 150.495 121.166 156.571 121.166 164.011C121.166 171.451 115.118 177.527 107.712 177.527Z" fill="white"/>
<path d="M181.769 143.716C166.917 143.716 154.841 155.847 154.841 170.769C154.841 185.69 166.917 197.821 181.769 197.821C196.622 197.821 208.697 185.69 208.697 170.769C208.697 155.847 196.622 143.716 181.769 143.716ZM181.769 204.579C163.214 204.579 148.114 189.41 148.114 170.769C148.114 152.127 163.214 136.958 181.769 136.958C200.325 136.958 215.424 152.127 215.424 170.769C215.424 189.41 200.325 204.579 181.769 204.579Z" fill="white"/>
<path d="M206.949 191.063C205.858 191.063 204.789 190.547 204.151 189.555C199.131 182.032 190.759 177.527 181.749 177.527C172.738 177.527 164.366 182.032 159.346 189.555C158.318 191.105 156.219 191.518 154.677 190.485C153.134 189.451 152.722 187.343 153.751 185.793C160.025 176.39 170.475 170.769 181.728 170.769C192.981 170.769 203.451 176.39 209.705 185.793C210.734 187.343 210.322 189.451 208.779 190.485C208.203 190.877 207.545 191.063 206.907 191.063H206.949Z" fill="white"/>
<path d="M181.769 157.232C178.066 157.232 175.042 160.27 175.042 163.99C175.042 167.71 178.066 170.748 181.769 170.748C185.472 170.748 188.496 167.71 188.496 163.99C188.496 160.27 185.472 157.232 181.769 157.232ZM181.769 177.527C174.343 177.527 168.315 171.451 168.315 164.011C168.315 156.571 174.363 150.495 181.769 150.495C189.175 150.495 195.223 156.571 195.223 164.011C195.223 171.451 189.175 177.527 181.769 177.527Z" fill="white"/>
<path d="M107.712 32.1159C102.137 32.1159 97.6114 36.6626 97.6114 42.2632C97.6114 47.8639 102.137 52.4106 107.712 52.4106C113.287 52.4106 117.813 47.8639 117.813 42.2632C117.813 36.6626 113.287 32.1159 107.712 32.1159ZM107.712 59.1686C98.4343 59.1686 90.8846 51.5839 90.8846 42.2632C90.8846 32.9426 98.4343 25.3579 107.712 25.3579C116.99 25.3579 124.539 32.9426 124.539 42.2632C124.539 51.5839 116.99 59.1686 107.712 59.1686Z" fill="white"/>
</g>
</g>
<defs>
<clipPath id="clip0_11_91">
<rect width="216" height="217" fill="white"/>
</clipPath>
</defs>
</svg>
