<svg width="232" height="215" viewBox="0 0 232 215" fill="none" xmlns="http://www.w3.org/2000/svg">
<g clip-path="url(#clip0_11_19)">
<mask id="mask0_11_19" style="mask-type:luminance" maskUnits="userSpaceOnUse" x="0" y="0" width="232" height="215">
<path d="M231.739 0H0V214.276H231.739V0Z" fill="white"/>
</mask>
<g mask="url(#mask0_11_19)">
<path d="M70.926 160.335C70.926 162.347 69.3009 163.956 67.3145 163.956H46.9496C44.9432 163.956 43.3381 162.326 43.3381 160.335C43.3381 158.343 44.9632 156.713 46.9496 156.713H67.3145C69.3209 156.713 70.926 158.343 70.926 160.335ZM70.926 132.911C70.926 134.923 69.3009 136.533 67.3145 136.533H46.9496C44.9432 136.533 43.3381 134.903 43.3381 132.911C43.3381 130.919 44.9632 129.29 46.9496 129.29H67.3145C69.3209 129.29 70.926 130.919 70.926 132.911ZM43.318 105.488C43.318 103.476 44.9432 101.866 46.9295 101.866H120.705C122.711 101.866 124.316 103.496 124.316 105.488C124.316 107.48 122.691 109.11 120.705 109.11H46.9496C44.9432 109.11 43.318 107.48 43.318 105.488ZM43.318 78.0648C43.318 76.0528 44.9432 74.4432 46.9295 74.4432H120.705C122.711 74.4432 124.316 76.0729 124.316 78.0648C124.316 80.0566 122.691 81.6863 120.705 81.6863H46.9496C44.9432 81.6863 43.318 80.0566 43.318 78.0648ZM43.318 50.6616C43.318 48.6496 44.9432 47.04 46.9295 47.04H120.705C122.711 47.04 124.316 48.6698 124.316 50.6616C124.316 52.6535 122.691 54.2832 120.705 54.2832H46.9496C44.9432 54.2832 43.318 52.6535 43.318 50.6616ZM211.494 153.474C211.494 153.474 211.434 153.494 211.394 153.514L195.182 159.932C195.182 159.932 195.042 159.972 194.982 160.013L157.181 175.002L119.421 160.033C119.32 159.993 119.2 159.932 119.1 159.912L90.5486 148.585L157.181 122.167L162.478 124.28C162.478 124.28 162.558 124.32 162.598 124.32L223.794 148.585L211.454 153.474H211.494ZM192.835 188.382C192.835 189.508 192.193 190.393 191.129 190.776C167.996 198.723 146.547 198.763 123.614 190.896C122.21 190.414 121.568 189.629 121.568 188.402V168.704L154.753 181.863C155.556 182.185 156.379 182.325 157.201 182.325C158.024 182.325 158.867 182.165 159.669 181.863L192.835 168.704V188.402V188.382ZM32.5637 86.1127C32.5637 82.1692 30.1761 78.7287 26.6649 77.0185V31.9703C26.6649 29.0328 29.0525 26.6386 31.9818 26.6386H135.693C138.622 26.6386 141.01 29.0328 141.01 31.9703V120.779L86.6161 142.347C84.0479 143.374 82.4026 145.828 82.4026 148.585C82.4026 151.341 84.068 153.816 86.6362 154.842L114.345 165.827V184.378H32.5637V86.1328V86.1127ZM16.2918 206.147L10.5334 197.697H22.0702L16.3118 206.147H16.2918ZM11.035 83.1148H21.5686C23.5951 83.1148 25.3206 84.5031 25.3206 86.1328V93.8789H7.28305V86.1328C7.28305 84.5031 9.00855 83.1148 11.035 83.1148ZM7.28305 101.122H12.6803V190.434H7.28305V101.122ZM19.9234 190.434V101.122H25.3206V190.434H19.9234ZM45.9664 12.595C45.9664 9.6575 48.354 7.26324 51.2834 7.26324H155.014C157.944 7.26324 160.331 9.6575 160.331 12.595V115.588L159.649 115.327C158.044 114.703 156.359 114.703 154.733 115.327L148.253 117.902V31.9703C148.253 25.029 142.615 19.3753 135.693 19.3753H45.9664V12.595ZM227.786 142.347L167.574 118.465V12.595C167.574 5.65366 161.936 0 155.014 0H51.2834C44.3613 0 38.7233 5.65366 38.7233 12.595V19.3753H31.9818C25.0597 19.3753 19.4218 25.029 19.4218 31.9703V75.8315H11.035C4.97569 75.8516 0.0399475 80.459 0.0399475 86.1127V193.673C0.0399475 194.679 0.320843 195.605 0.902699 196.429L12.0583 212.747C13.0013 214.135 14.5863 214.96 16.3118 214.96C18.0374 214.96 19.5422 214.175 20.5052 212.807C20.5052 212.807 20.5253 212.767 20.5454 212.767L31.7009 196.429C32.2627 195.605 32.5637 194.679 32.5637 193.673V191.601H114.866C115.829 194.438 118.076 196.631 121.287 197.737C133.486 201.922 145.303 204.015 157.141 204.015C168.979 204.015 181.057 201.882 193.477 197.617C197.49 196.248 200.078 192.607 200.078 188.361V165.807L209.207 162.186V175.947C209.207 177.959 210.832 179.569 212.819 179.569C214.805 179.569 216.43 177.939 216.43 175.947V159.308L227.766 154.822C230.335 153.796 231.98 151.341 231.98 148.564C231.98 145.788 230.314 143.353 227.746 142.327L227.786 142.347Z" fill="white"/>
</g>
</g>
<defs>
<clipPath id="clip0_11_19">
<rect width="232" height="215" fill="white"/>
</clipPath>
</defs>
</svg>
