<svg width="173" height="196" viewBox="0 0 173 196" fill="none" xmlns="http://www.w3.org/2000/svg">
<g clip-path="url(#clip0_11_26)">
<mask id="mask0_11_26" style="mask-type:luminance" maskUnits="userSpaceOnUse" x="0" y="0" width="173" height="196">
<path d="M172.981 0H0V196H172.981V0Z" fill="white"/>
</mask>
<g mask="url(#mask0_11_26)">
<path d="M41.4405 195.44C42.6968 195.44 43.8407 194.992 44.7407 194.264C45.6408 195.011 46.7846 195.44 48.041 195.44H84.3061C87.1563 195.44 89.4627 193.125 89.4627 190.307V29.904L127.265 191.483C127.809 193.779 129.928 195.459 132.31 195.459C132.703 195.459 133.097 195.421 133.472 195.328L168.8 187.133C171.575 186.499 173.3 183.717 172.662 180.955L131.241 3.976C130.697 1.64267 128.616 0 126.215 0C125.822 0 125.428 0.0373333 125.053 0.130667L89.7252 8.32533C89.7252 8.32533 89.5377 8.38133 89.4627 8.4C89.3502 5.656 87.0813 3.45333 84.3061 3.45333H48.041C46.7846 3.45333 45.6408 3.90133 44.7407 4.62933C43.8407 3.88267 42.6968 3.45333 41.4405 3.45333H5.15662C2.32517 3.45333 0 5.768 0 8.58667V190.307C0 193.144 2.32517 195.44 5.15662 195.44H41.4217M3.75027 190.307V8.58667C3.75027 7.80267 4.38782 7.168 5.17537 7.168H41.4405C42.2281 7.168 42.8656 7.80267 42.8656 8.58667V190.307C42.8656 191.091 42.2281 191.725 41.4405 191.725H5.15662C4.36907 191.725 3.73152 191.091 3.73152 190.307H3.75027ZM84.2873 7.18667C85.0749 7.18667 85.7124 7.82133 85.7124 8.60533V190.325C85.7124 191.109 85.0749 191.744 84.2873 191.744H48.0222C47.2347 191.744 46.5971 191.109 46.5971 190.325V8.58667C46.5971 7.80267 47.2347 7.168 48.0222 7.168H84.2873V7.18667ZM127.603 4.816L169.006 181.795C169.175 182.56 168.706 183.307 167.937 183.493L132.61 191.688C131.86 191.856 131.072 191.371 130.903 190.624L89.5002 13.6453C89.3315 12.88 89.8002 12.1333 90.5691 11.9467L125.897 3.752C126.009 3.73333 126.103 3.71467 126.215 3.71467C126.872 3.71467 127.453 4.18133 127.603 4.816Z" fill="white"/>
<path d="M14.251 123.517H32.3461C34.6713 123.517 36.5651 121.632 36.5651 119.317V52.1919C36.5651 49.8773 34.6713 47.9919 32.3461 47.9919H14.251C11.9259 47.9919 10.032 49.8773 10.032 52.1919V119.336C10.032 121.651 11.9259 123.536 14.251 123.536" fill="white"/>
<path d="M23.3079 157.379C16.4262 157.379 10.8195 162.96 10.8195 169.811C10.8195 176.661 16.4262 182.243 23.3079 182.243C30.1897 182.243 35.7963 176.661 35.7963 169.811C35.7963 162.96 30.1897 157.379 23.3079 157.379ZM14.5511 169.811C14.5511 165.013 18.4701 161.112 23.2892 161.112C28.1083 161.112 32.0273 165.013 32.0273 169.811C32.0273 174.608 28.1083 178.509 23.2892 178.509C18.4701 178.509 14.5511 174.608 14.5511 169.811Z" fill="white"/>
<path d="M23.3079 162.027C18.9951 162.027 15.4886 165.517 15.4886 169.811C15.4886 174.104 18.9951 177.595 23.3079 177.595C27.6207 177.595 31.1272 174.104 31.1272 169.811C31.1272 165.517 27.6207 162.027 23.3079 162.027Z" fill="white"/>
<path d="M57.1166 123.517H75.2117C77.5368 123.517 79.4307 121.632 79.4307 119.317V52.1919C79.4307 49.8773 77.5368 47.9919 75.2117 47.9919H57.1166C54.7915 47.9919 52.8976 49.8773 52.8976 52.1919V119.336C52.8976 121.651 54.7915 123.536 57.1166 123.536" fill="white"/>
<path d="M66.1548 157.379C59.273 157.379 53.6664 162.96 53.6664 169.811C53.6664 176.661 59.273 182.243 66.1548 182.243C73.0365 182.243 78.6432 176.661 78.6432 169.811C78.6432 162.96 73.0365 157.379 66.1548 157.379ZM57.4167 169.811C57.4167 165.013 61.3357 161.112 66.1548 161.112C70.9739 161.112 74.8929 165.013 74.8929 169.811C74.8929 174.608 70.9739 178.509 66.1548 178.509C61.3357 178.509 57.4167 174.608 57.4167 169.811Z" fill="white"/>
<path d="M66.1548 162.027C61.842 162.027 58.3355 165.517 58.3355 169.811C58.3355 174.104 61.842 177.595 66.1548 177.595C70.4676 177.595 73.9741 174.104 73.9741 169.811C73.9741 165.517 70.4676 162.027 66.1548 162.027Z" fill="white"/>
<path d="M105.551 54.6935L120.852 120.083C121.377 122.341 123.665 123.741 125.915 123.219L143.542 119.131C145.811 118.608 147.217 116.331 146.692 114.091L131.391 48.7015C130.866 46.4428 128.578 45.0428 126.328 45.5655L108.702 49.6535C106.433 50.1761 105.026 52.4535 105.551 54.6935Z" fill="white"/>
<path d="M142.454 154.131C139.21 154.877 136.454 156.856 134.691 159.675C132.928 162.493 132.366 165.835 133.135 169.064C134.466 174.72 139.454 178.677 145.285 178.677C146.242 178.677 147.198 178.565 148.136 178.341C154.849 176.792 159.03 170.091 157.474 163.408C156.143 157.752 151.155 153.795 145.323 153.795C144.367 153.795 143.41 153.907 142.473 154.131M147.273 174.72C146.617 174.869 145.942 174.944 145.285 174.944C141.198 174.944 137.71 172.181 136.772 168.205C136.247 165.947 136.622 163.613 137.86 161.635C139.098 159.656 141.029 158.275 143.298 157.752C143.954 157.603 144.629 157.528 145.285 157.528C149.373 157.528 152.861 160.291 153.799 164.267C154.886 168.933 151.961 173.637 147.273 174.72Z" fill="white"/>
<path d="M143.504 158.667C139.304 159.637 136.679 163.819 137.672 168C138.648 172.181 142.848 174.795 147.048 173.805C151.248 172.835 153.874 168.653 152.88 164.472C151.905 160.291 147.704 157.677 143.504 158.667Z" fill="white"/>
</g>
</g>
<defs>
<clipPath id="clip0_11_26">
<rect width="173" height="196" fill="white"/>
</clipPath>
</defs>
</svg>
