<svg width="901" height="715" viewBox="0 0 901 715" fill="none" xmlns="http://www.w3.org/2000/svg">
<g clip-path="url(#clip0_198_34)">
<path d="M310.72 565.692L313.598 569.322L427.349 715L858.077 293.234L564.251 507.371L540.225 556.806L524.207 532.902L414.836 616.755L310.72 565.692Z" fill="#141C44" fill-opacity="0.2"/>
<path d="M484.413 534.654V365.322H545.105V495.106H499.179L512.444 516.257L484.413 534.654Z" fill="#141C44" fill-opacity="0.2"/>
<path d="M396.941 409.626V578.958L410.956 583.714L456.882 551.425V409.626H396.941Z" fill="#141C44" fill-opacity="0.2"/>
<path d="M307.466 530.649L367.783 568.195V458.311H307.466V530.649Z" fill="#141C44" fill-opacity="0.2"/>
<path d="M607.174 460.564L701.153 392.105L450.5 0L0 704.863H143.284L450.5 206.503L607.174 460.564Z" fill="#141C44" fill-opacity="0.2"/>
<path d="M729.56 436.659L643.965 520.387L757.716 704.863H901L729.56 436.659Z" fill="#141C44" fill-opacity="0.2"/>
</g>
<defs>
<clipPath id="clip0_198_34">
<rect width="901" height="715" fill="white"/>
</clipPath>
</defs>
</svg>
