<svg width="714" height="611" viewBox="0 0 714 611" fill="none" xmlns="http://www.w3.org/2000/svg">
<g clip-path="url(#clip0_29_75)">
<path d="M123.72 565.692L126.598 569.322L240.349 715L671.077 293.234L377.251 507.371L353.225 556.806L337.207 532.902L227.835 616.755L123.72 565.692Z" fill="#141C44" fill-opacity="0.2"/>
<path d="M297.413 534.654V365.322H358.105V495.106H312.179L325.444 516.257L297.413 534.654Z" fill="#141C44" fill-opacity="0.2"/>
<path d="M209.941 409.626V578.958L223.956 583.714L269.882 551.425V409.626H209.941Z" fill="#141C44" fill-opacity="0.2"/>
<path d="M120.466 530.649L180.783 568.195V458.311H120.466V530.649Z" fill="#141C44" fill-opacity="0.2"/>
<path d="M420.174 460.564L514.153 392.105L263.5 0L-187 704.863H-43.716L263.5 206.503L420.174 460.564Z" fill="#141C44" fill-opacity="0.2"/>
<path d="M542.56 436.659L456.965 520.387L570.716 704.863H714L542.56 436.659Z" fill="#141C44" fill-opacity="0.2"/>
</g>
<defs>
<clipPath id="clip0_29_75">
<rect width="901" height="715" fill="white" transform="translate(-187)"/>
</clipPath>
</defs>
</svg>
