<svg width="604" height="544" viewBox="0 0 604 544" fill="none" xmlns="http://www.w3.org/2000/svg">
<g clip-path="url(#clip0_26_54)">
<path d="M123.128 461.257L125.473 464.216L218.14 583L569.033 239.098L329.668 413.702L310.094 454.011L297.045 434.52L207.946 502.892L123.128 461.257Z" fill="#6C74B7" fill-opacity="0.14"/>
<path d="M264.627 435.949V297.878H314.07V403.702H276.656L287.463 420.948L264.627 435.949Z" fill="#6C74B7" fill-opacity="0.14"/>
<path d="M193.368 334.003V472.074L204.786 475.952L242.199 449.623V334.003H193.368Z" fill="#6C74B7" fill-opacity="0.14"/>
<path d="M120.477 432.683L169.615 463.298V373.7H120.477V432.683Z" fill="#6C74B7" fill-opacity="0.14"/>
<path d="M364.634 375.536L441.195 319.716L237 0L-130 574.734H-13.2736L237 168.379L364.634 375.536Z" fill="#6C74B7" fill-opacity="0.14"/>
<path d="M464.336 356.045L394.606 424.316L487.274 574.734H604L464.336 356.045Z" fill="#6C74B7" fill-opacity="0.14"/>
</g>
<defs>
<clipPath id="clip0_26_54">
<rect width="734" height="583" fill="white" transform="translate(-130)"/>
</clipPath>
</defs>
</svg>
